Coordinates
version=1
nRows=16
nColumns=30
inDegrees=yes

Units are S.I. units (second, meters, Newtons, ...)
Angles are in degrees.

endheader
time	floatyaw	floatroll	floatpitch	floatx	floaty	floatz	pro_sup_l	deviation_l	flexion_l	cmc_flexion_l	cmc_abduction_l	mp_flexion_l	ip_flexion_l	2mcp_flexion_l	2mcp_abduction_l	2pm_flexion_l	2md_flexion_l	3mcp_flexion_l	3mcp_abduction_l	3pm_flexion_l	3md_flexion_l	4mcp_flexion_l	4mcp_abduction_l	4pm_flexion_l	4md_flexion_l	5mcp_flexion_l	5mcp_abduction_l	5pm_flexion_l	5md_flexion_l
-1.495000	-2.367547	-3.808797	97.590660	-0.102099	-0.188515	-0.034128	86.618926	2.407641	-1.151404	14.696468	7.784762	-21.866196	-34.390826	37.993359	10.587592	46.616211	32.640343	22.061524	5.295511	45.540857	31.776532	10.965352	-4.656978	60.959271	42.002324	6.858654	-10.841861	59.845661	41.631368
-1.485000	-2.367547	-3.808797	97.590660	-0.102088	-0.188525	-0.034132	86.620619	2.412138	-1.165014	14.685867	7.751472	-21.883704	-34.398003	38.008079	10.573507	46.640254	32.653820	22.077679	5.300246	45.563380	31.786199	10.970717	-4.660425	60.974135	42.010007	6.827069	-10.826669	59.882989	41.645379
-1.475000	-2.367547	-3.808797	97.590660	-0.102079	-0.188539	-0.034141	86.616729	2.415924	-1.177825	14.675616	7.723218	-21.901941	-34.407102	38.021786	10.559374	46.661224	32.663881	22.089561	5.304147	45.585367	31.796313	10.976348	-4.662583	60.988997	42.018200	6.807985	-10.819290	59.918439	41.656032
-1.465000	-2.367547	-3.808797	97.590660	-0.102071	-0.188554	-0.034153	86.605318	2.417285	-1.189621	14.664943	7.704559	-21.919146	-34.417257	38.034493	10.547173	46.678390	32.669561	22.096758	5.307133	45.605390	31.806761	10.983473	-4.663201	61.002413	42.026233	6.805661	-10.819041	59.950568	41.662071
-1.455000	-2.367547	-3.808797	97.590660	-0.102064	-0.188572	-0.034166	86.587683	2.415362	-1.200710	14.654351	7.697060	-21.934055	-34.427627	38.045873	10.539417	46.693699	32.672525	22.099889	5.309549	45.624229	31.817999	10.993310	-4.662188	61.012693	42.033087	6.818280	-10.823282	59.978713	41.663802
-1.445000	-2.367547	-3.808797	97.590660	-0.102056	-0.188589	-0.034175	86.567684	2.410539	-1.211781	14.643913	7.698944	-21.946298	-34.437412	38.056122	10.538349	46.710557	32.675942	22.100949	5.311808	45.644513	31.830743	11.006830	-4.660120	61.018929	42.037948	6.838303	-10.828103	60.003457	41.663149
-1.435000	-2.367547	-3.808797	97.590660	-0.102049	-0.188603	-0.034180	86.550217	2.404104	-1.223073	14.631464	7.705464	-21.956924	-34.446212	38.066330	10.544688	46.730995	32.682167	22.102727	5.314162	45.668562	31.845056	11.024040	-4.658226	61.021711	42.040718	6.856026	-10.830094	60.026472	41.662862
-1.425000	-2.367547	-3.808797	97.590660	-0.102042	-0.188612	-0.034179	86.540224	2.397562	-1.233548	14.612490	7.710278	-21.968385	-34.454410	38.077661	10.556688	46.753367	32.690950	22.107580	5.316700	45.696037	31.859563	11.043499	-4.657701	61.022970	42.042099	6.864152	-10.828237	60.049823	41.665303
-1.415000	-2.367547	-3.808797	97.590660	-0.102037	-0.188612	-0.034170	86.542544	2.391970	-1.240915	14.582284	7.708163	-21.983242	-34.463003	38.089968	10.570090	46.772426	32.699371	22.116522	5.319337	45.723120	31.871502	11.062850	-4.658738	61.024842	42.043156	6.860654	-10.824478	60.074916	41.671453
-1.405000	-2.367547	-3.808797	97.590660	-0.102033	-0.188597	-0.034154	86.561617	2.387486	-1.242799	14.539127	7.698155	-22.001847	-34.472572	38.101246	10.578881	46.781935	32.703440	22.129503	5.321584	45.743711	31.877685	11.080228	-4.659999	61.028158	42.044679	6.848525	-10.822125	60.101352	41.680468
-1.395000	-2.367547	-3.808797	97.590660	-0.102024	-0.188561	-0.034125	86.600112	2.383178	-1.238388	14.486346	7.684877	-22.020517	-34.481895	38.108683	10.576497	46.778340	32.700315	22.146749	5.322256	45.751818	31.875770	11.095576	-4.659101	61.031583	42.046824	6.832933	-10.822794	60.126144	41.689831
-1.385000	-2.367547	-3.808797	97.590660	-0.102005	-0.188500	-0.034080	86.656894	2.377211	-1.229480	14.431730	7.676405	-22.032021	-34.487329	38.110628	10.557439	46.763363	32.689919	22.169871	5.319691	45.744067	31.865247	11.110920	-4.654013	61.032220	42.049293	6.817978	-10.824170	60.143893	41.695947
-1.375000	-2.367547	-3.808797	97.590660	-0.101965	-0.188410	-0.034010	86.725783	2.367594	-1.220236	14.384508	7.679563	-22.028913	-34.483946	38.107768	10.519388	46.743991	32.675227	22.201322	5.312760	45.721669	31.847955	11.129228	-4.644415	61.027528	42.051861	6.805761	-10.821032	60.148429	41.695122
-1.365000	-2.367547	-3.808797	97.590660	-0.101896	-0.188290	-0.033909	86.796564	2.353656	-1.215977	14.351624	7.695859	-22.008184	-34.468320	38.102176	10.465229	46.729657	32.661104	22.242026	5.302082	45.691227	31.828084	11.152330	-4.631920	61.017480	42.054811	6.798915	-10.809926	60.135534	41.684732
-1.355000	-2.367547	-3.808797	97.590660	-0.101792	-0.188141	-0.033773	86.858747	2.337999	-1.222028	14.335443	7.721002	-21.974432	-34.441511	38.094611	10.403435	46.728093	32.652246	22.288910	5.290348	45.663530	31.811371	11.179157	-4.618895	61.005394	42.058814	6.804637	-10.794371	60.105194	41.664215
-1.345000	-2.367547	-3.808797	97.590660	-0.101651	-0.187966	-0.033605	86.907036	2.327982	-1.243606	14.334006	7.748151	-21.939298	-34.410237	38.082285	10.345500	46.742176	32.651191	22.334898	5.281227	45.649822	31.803165	11.205841	-4.606878	60.996433	42.064066	6.835688	-10.785633	60.061873	41.635526
